<?xml version="1.0" encoding="UTF-8" standalone="no"?>
<svg
   xmlns:dc="http://purl.org/dc/elements/1.1/"
   xmlns:cc="http://creativecommons.org/ns#"
   xmlns:rdf="http://www.w3.org/1999/02/22-rdf-syntax-ns#"
   xmlns:svg="http://www.w3.org/2000/svg"
   xmlns="http://www.w3.org/2000/svg"
   xmlns:sodipodi="http://sodipodi.sourceforge.net/DTD/sodipodi-0.dtd"
   xmlns:inkscape="http://www.inkscape.org/namespaces/inkscape"
   width="61.88755mm"
   height="57.746712mm"
   viewBox="0 0 61.88755 57.746712"
   version="1.1"
   id="svg865"
   inkscape:version="1.0.2 (1.0.2+r75+1)"
   sodipodi:docname="bishop-black.svg">
  <defs
     id="defs859" />
  <sodipodi:namedview
     id="base"
     pagecolor="#ffffff"
     bordercolor="#666666"
     borderopacity="1.0"
     inkscape:pageopacity="0.0"
     inkscape:pageshadow="2"
     inkscape:zoom="0.35"
     inkscape:cx="265.52428"
     inkscape:cy="123.41335"
     inkscape:document-units="mm"
     inkscape:current-layer="layer1"
     inkscape:document-rotation="0"
     showgrid="false"
     fit-margin-top="0"
     fit-margin-left="0"
     fit-margin-right="0"
     fit-margin-bottom="0"
     inkscape:window-width="1366"
     inkscape:window-height="711"
     inkscape:window-x="0"
     inkscape:window-y="0"
     inkscape:window-maximized="1" />
  <metadata
     id="metadata862">
    <rdf:RDF>
      <cc:Work
         rdf:about="">
        <dc:format>image/svg+xml</dc:format>
        <dc:type
           rdf:resource="http://purl.org/dc/dcmitype/StillImage" />
        <dc:title></dc:title>
      </cc:Work>
    </rdf:RDF>
  </metadata>
  <g
     inkscape:label="Layer 1"
     inkscape:groupmode="layer"
     id="layer1"
     transform="translate(-35.580035,-115.51355)">
    <path
       fill="#20201e"
       d="m 97.44557,170.74198 c -0.519853,-0.28371 -5.202105,-4.88471 -9.544341,-4.88471 -2.257822,0 -4.028334,0.6812 -5.589084,1.28273 -1.583479,0.60968 -3.078401,1.18517 -5.242322,1.18517 -2.522009,0 -4.615604,-0.7698 -6.463692,-1.44854 -1.490001,-0.54626 -2.776828,-1.01936 -4.093765,-1.01936 -1.316011,0 -2.602918,0.4731 -4.092919,1.01936 -1.847268,0.67876 -3.941339,1.44854 -6.463268,1.44854 -2.164318,0 -3.659241,-0.57552 -5.242322,-1.18517 -1.561174,-0.60156 -3.331263,-1.28273 -5.588661,-1.28273 -4.343321,0 -9.025758,4.60095 -9.545161,4.88471 0,0 1.890395,-1.18276 3.649503,-1.18276 1.759532,0 3.283241,1.23396 5.895922,1.23396 1.340088,0 2.432209,0.42026 3.815742,0.95269 1.752626,0.6755 3.93319,1.51439 7.015241,1.51439 3.400372,0 6.154447,-1.01121 8.165545,-1.74937 0.915299,-0.33652 1.952572,-0.71779 2.390748,-0.71779 0.439764,0 1.47619,0.38124 2.39149,0.71779 2.011494,0.73811 4.765172,1.74937 8.165967,1.74937 3.081311,0 5.262695,-0.83889 7.015242,-1.51439 1.382712,-0.53245 2.47523,-0.95269 3.816165,-0.95269 2.612257,0 4.592029,-1.23396 5.895075,-1.23396 1.303046,0 3.670909,1.182 3.670909,1.182 z"
       id="path108"
       style="stroke-width:0.264583" />
    <path
       fill="#ffffff"
       stroke="#20201e"
       stroke-width="1.0986"
       d="m 83.103275,142.5152 c 0,-7.78671 -6.644163,-20.13 -11.729402,-21.79897 -0.176795,-0.0581 -0.358881,-0.10689 -0.545862,-0.14591 0.88683,-0.32883 1.520957,-1.17952 1.520957,-2.18099 0,-1.28524 -1.042511,-2.32648 -2.326481,-2.32648 -1.284393,0 -2.327725,1.04135 -2.327725,2.32648 0,0.893 0.504799,1.66648 1.242536,2.05745 -1.042511,0.0675 -2.168816,0.33856 -3.329199,0.80598 -0.740145,-0.33655 -1.476586,-0.57756 -2.202127,-0.70967 0.848625,-0.34668 1.4478,-1.18075 1.4478,-2.15376 0,-1.28524 -1.041347,-2.32648 -2.326481,-2.32648 -1.285134,0 -2.326481,1.04135 -2.326481,2.32648 0,0.90757 0.52107,1.69286 1.279472,2.07608 -0.393859,0.0435 -0.781606,0.12517 -1.16078,0.25077 -5.073253,1.66931 -11.569568,13.55569 -11.569568,21.79897 0,6.57392 2.663455,12.23716 5.737834,16.33672 0.45765,1.21531 1.153451,1.25101 1.303893,1.40142 3.97e-4,0 8.2e-4,-7.9e-4 0.0012,-7.9e-4 -0.0029,0.0203 -0.609256,3.96205 -0.668602,4.85217 -0.09144,1.37212 -0.229632,2.99307 -0.229632,2.99307 3.354414,1.47545 7.0299,2.33222 11.022674,2.33222 3.9937,0 7.487973,-0.93969 10.841222,-2.4143 -0.119485,-1.09661 -0.25646,-2.19239 -0.530807,-3.83847 -0.14306,-0.86087 -0.635688,-3.92625 -0.635688,-3.92625 0.149569,-0.14878 1.054312,-1.28358 1.054312,-1.28358 3.263027,-4.12041 6.451124,-9.61427 6.451124,-16.44827 z"
       id="path110" />
    <path
       stroke="#000000"
       stroke-width="0.443574"
       d="m 55.875375,160.25372 c 2.720367,-1.17221 5.848376,-2.1997 9.901449,-2.1997 4.051882,0 7.178649,1.02669 9.898936,2.19721 0.149172,-0.14875 0.504798,-0.53002 1.239282,-1.55834 -2.288699,-2.4769 -5.619565,-3.83771 -11.068447,-3.83771 -5.813848,0 -8.987446,1.51689 -11.275748,3.99704 0.466143,1.20697 1.165357,1.24859 1.315191,1.39843 z"
       id="path112" />
    <path
       fill="#ffffff"
       stroke="#000000"
       stroke-width="0.84365"
       stroke-linejoin="bevel"
       d="m 76.66882,168.0117 c -3.354837,-1.47376 -6.785663,-2.20457 -10.778781,-2.20457 -3.993118,0 -7.731019,0.81291 -11.085115,2.28669 3.35399,1.47545 7.029476,2.33222 11.022674,2.33222 3.995525,0 7.491624,-0.94062 10.846196,-2.41397 z"
       id="path114" />
    <path
       stroke="#000000"
       stroke-width="0.443574"
       d="m 76.577248,158.96347 c 2.112724,-3.5312 4.892357,-10.19111 1.418907,-21.52509 -2.914253,-9.50937 -11.500484,-18.78817 -17.746,-16.7263 -5.539476,1.82904 -11.569568,14.92747 -11.569568,21.79897 0,6.57391 2.662608,12.23716 5.73659,16.33672 l 22.166897,0.10822 z"
       id="path116" />
    <circle
       stroke="#000000"
       stroke-width="0.443574"
       cx="62.45969"
       cy="118.38383"
       r="2.3267193"
       id="circle118" />
    <path
       stroke="#000000"
       stroke-width="0.443574"
       stroke-linejoin="bevel"
       d="m 75.520079,160.24538 -8.2e-4,-0.002 c -2.720367,-1.16978 -5.849541,-2.15008 -9.898936,-2.15008 -4.052649,0 -7.177802,0.98115 -9.898935,2.15251 0,0 -0.60968,3.96124 -0.668999,4.85373 -0.09144,1.37213 -0.229235,2.99307 -0.229235,2.99307 3.353567,-1.47375 7.0925,-2.28668 11.084268,-2.28668 3.916522,0 7.472495,0.78364 10.778781,2.20456 -0.119089,-1.09662 -0.25646,-2.19239 -0.53041,-3.83847 -0.149833,-0.86569 -0.640953,-3.93727 -0.640953,-3.93727 z"
       id="path120" />
    <path
       fill="none"
       stroke="#ffffff"
       stroke-width="0.443574"
       stroke-linecap="round"
       stroke-linejoin="bevel"
       d="m 75.420199,165.5561 c -3.015457,-0.93644 -6.23488,-1.45106 -9.55683,-1.45106 -3.378385,0 -6.831118,0.55034 -9.928066,1.52255"
       id="path122" />
    <g
       id="g128"
       transform="matrix(0.26458333,0,0,0.26458333,57.786778,68.827607)">
      <path
         fill="none"
         stroke="#ffffff"
         stroke-width="1.6765"
         stroke-linecap="round"
         d="m -4.55,344.1631 c 9.5229,-3.8344 20.442,-6.9529 34.1665,-6.9529 13.7978,0 24.7553,3.1524 34.3144,7.0111"
         id="path124" />
      <path
         fill="none"
         stroke="#ffffff"
         stroke-width="1.6765"
         stroke-linecap="round"
         d="M 70.1382,337.3991 C 58.05,327.7306 48.3767,325.1404 30.4755,325.1404 c -14.993,0 -30.4639,3.9694 -37.8758,10.7593"
         id="path126" />
    </g>
    <polygon
       fill="#ffffff"
       stroke="#000000"
       stroke-width="1.6765"
       points="-6.5949,262.1446 -14.9006,270.4503 -6.5949,278.756 -2.4106,274.6031 18.3535,274.6031 18.3535,297.3808 14.2007,301.5336 22.5064,309.8393 30.8121,301.5336 26.6907,297.4123 26.6907,274.6031 47.329,274.6031 51.4818,278.756 59.7875,270.4503 51.4818,262.1446 47.3919,266.266 26.6907,266.266 26.6907,247.5782 30.8121,243.4568 22.5064,235.1512 14.2007,243.4568 18.3535,247.6096 18.3535,266.266 -2.4736,266.266 "
       id="polygon130"
       transform="matrix(0.26458333,0,0,0.26458333,57.786778,68.827607)" />
  </g>
</svg>
