<?xml version="1.0" encoding="UTF-8" standalone="no"?>
<svg
   xmlns:dc="http://purl.org/dc/elements/1.1/"
   xmlns:cc="http://creativecommons.org/ns#"
   xmlns:rdf="http://www.w3.org/1999/02/22-rdf-syntax-ns#"
   xmlns:svg="http://www.w3.org/2000/svg"
   xmlns="http://www.w3.org/2000/svg"
   xmlns:sodipodi="http://sodipodi.sourceforge.net/DTD/sodipodi-0.dtd"
   xmlns:inkscape="http://www.inkscape.org/namespaces/inkscape"
   width="62.983753mm"
   height="58.294762mm"
   viewBox="0 0 62.983753 58.294762"
   version="1.1"
   id="svg784"
   inkscape:version="1.0.2 (1.0.2+r75+1)"
   sodipodi:docname="bishop-white.svg">
  <defs
     id="defs778" />
  <sodipodi:namedview
     id="base"
     pagecolor="#ffffff"
     bordercolor="#666666"
     borderopacity="1.0"
     inkscape:pageopacity="0.0"
     inkscape:pageshadow="2"
     inkscape:zoom="0.35"
     inkscape:cx="141.2583"
     inkscape:cy="121.0609"
     inkscape:document-units="mm"
     inkscape:current-layer="layer1"
     inkscape:document-rotation="0"
     showgrid="false"
     fit-margin-top="0"
     fit-margin-left="0"
     fit-margin-right="0"
     fit-margin-bottom="0"
     inkscape:window-width="1366"
     inkscape:window-height="711"
     inkscape:window-x="0"
     inkscape:window-y="0"
     inkscape:window-maximized="1" />
  <metadata
     id="metadata781">
    <rdf:RDF>
      <cc:Work
         rdf:about="">
        <dc:format>image/svg+xml</dc:format>
        <dc:type
           rdf:resource="http://purl.org/dc/dcmitype/StillImage" />
        <dc:title></dc:title>
      </cc:Work>
    </rdf:RDF>
  </metadata>
  <g
     inkscape:label="Layer 1"
     inkscape:groupmode="layer"
     id="layer1"
     transform="translate(-68.458741,-116.13597)">
    <path
       fill="#ffffff"
       stroke="#20201e"
       stroke-width="1.0986"
       stroke-linecap="round"
       stroke-linejoin="round"
       d="m 130.87175,171.36233 c -0.51985,-0.28328 -5.2021,-4.88428 -9.54516,-4.88428 -2.2574,0 -4.02791,0.68162 -5.58908,1.2823 -1.58316,0.60968 -3.07806,1.1856 -5.24198,1.1856 -2.52201,0 -4.6156,-0.76941 -6.46412,-1.44823 -1.48965,-0.54707 -2.77682,-1.01978 -4.093338,-1.01978 -1.316011,0 -2.602494,0.47271 -4.092522,1.01978 -1.847268,0.67877 -3.941339,1.44823 -6.463691,1.44823 -2.163922,0 -3.659241,-0.57595 -5.242322,-1.1856 -1.561174,-0.60074 -3.331607,-1.2823 -5.589429,-1.2823 -4.342474,0 -9.024911,4.60094 -9.544341,4.88428 0,0 1.992762,-1.18234 3.649504,-1.18234 1.656741,0 3.282844,1.23354 5.895075,1.23354 1.340829,0 2.43295,0.42066 3.816562,0.95351 1.752626,0.67471 3.933613,1.51439 7.015242,1.51439 3.399948,0 6.154446,-1.01121 8.165544,-1.74971 0.915723,-0.33695 1.952572,-0.71819 2.390748,-0.71819 0.439768,0 1.476188,0.38124 2.391488,0.71819 2.0111,0.7385 4.76517,1.74971 8.16597,1.74971 3.08089,0 5.26227,-0.83973 7.01524,-1.51439 1.38229,-0.53285 2.47523,-0.95351 3.81574,-0.95351 2.61266,0 3.69012,-1.23354 5.8955,-1.23354 2.22253,0 3.67091,1.182 3.67091,1.182 z"
       id="path132" />
    <path
       fill="#ffffff"
       stroke="#20201e"
       stroke-width="1.0986"
       d="m 104.72597,121.33823 c -0.1764,-0.0577 -0.35888,-0.10649 -0.54464,-0.14549 0.88601,-0.32923 1.51971,-1.17952 1.51971,-2.18099 0,-1.28524 -1.04135,-2.32648 -2.32648,-2.32648 -1.28513,0 -2.3269,1.04134 -2.3269,2.32648 0,0.89299 0.50318,1.66648 1.24169,2.05745 -6.677956,0.43368 -16.815387,9.23052 -17.138364,24.12471 -0.128429,5.91788 0.621877,10.76213 2.688669,14.2807 l 22.344195,-0.15934 c 3.26663,-4.12138 6.27068,-9.33788 6.27068,-16.17773 0,-9.09984 -6.64258,-20.13582 -11.72856,-21.80563 z"
       id="path134" />
    <path
       fill="#ffffff"
       stroke="#20201e"
       stroke-width="1.0986"
       d="m 111.4185,138.06537 c -2.45657,-8.01595 -8.94167,-15.86309 -14.66027,-16.89944 0.849868,-0.34668 1.448224,-1.18075 1.448224,-2.15376 0,-1.28524 -1.041347,-2.32648 -2.326482,-2.32648 -1.284816,0 -2.326904,1.04135 -2.326904,2.32648 0,0.90758 0.521467,1.69286 1.280319,2.07611 -0.394653,0.0431 -0.782003,0.12517 -1.16078,0.25035 -5.073254,1.6697 -11.570388,12.88727 -11.570388,21.79981 0,6.57389 2.663454,12.23716 5.73741,16.33675 l 22.344191,-0.15933 c 2.11429,-3.52939 4.70308,-9.92225 1.23196,-21.25207 z"
       id="path136" />
    <path
       fill="#ffffff"
       stroke="#000000"
       stroke-width="0.84365"
       stroke-linejoin="bevel"
       d="m 110.11162,168.64038 c -2.80771,-1.28804 -6.78524,-2.20496 -10.777115,-2.20496 -3.993701,0 -7.732263,0.81288 -11.085936,2.28746 3.353567,1.47375 7.0299,2.33098 11.022674,2.33098 3.995527,0 7.491627,-0.94062 10.846197,-2.41396 z"
       id="path138" />
    <path
       fill="#ffffff"
       stroke="#20201e"
       stroke-width="1.0986"
       stroke-linejoin="bevel"
       d="m 108.94626,160.87404 -0.002,-0.003 c -2.72036,-1.16935 -5.84996,-2.14968 -9.898934,-2.14968 -4.05265,0 -7.177802,0.98115 -9.898936,2.15251 0,0 -0.609679,3.96042 -0.668602,4.85458 -0.09186,1.37096 -0.229632,2.99307 -0.229632,2.99307 3.353567,-1.4746 7.092077,-2.28745 11.085936,-2.28745 3.915278,0 7.471308,0.78321 10.777118,2.20495 -0.1187,-1.09744 -0.25607,-2.19395 -0.53002,-3.83929 -0.14983,-0.87402 -0.64095,-3.93726 -0.64095,-3.93726 z"
       id="path140" />
    <path
       fill="#ffffff"
       stroke="#20201e"
       stroke-width="1.0986"
       stroke-linejoin="bevel"
       d="m 88.244389,168.72359 c 3.353567,-1.4746 7.092076,-2.28745 11.085935,-2.28745 3.915276,0 7.471336,0.78322 10.777116,2.20495 -0.085,-0.91813 -0.28816,-1.49042 -0.41619,-2.66218 -3.32187,-1.16369 -6.6897,-1.75744 -10.41252,-1.75744 -3.764967,0 -7.495698,0.68363 -10.84953,1.87248 -0.01664,1.03219 -0.191453,2.63041 -0.191453,2.63041 z"
       id="path142" />
    <path
       fill="#ffffff"
       stroke="#20201e"
       stroke-width="1.0986"
       d="m 89.14339,160.87404 c 2.72079,-1.17052 5.848799,-2.17289 9.902269,-2.19887 3.451141,-0.0228 7.179041,1.02669 9.899781,2.1972 0.14917,-0.14957 0.78118,-0.34142 1.23886,-1.55834 -2.28785,-2.4769 -5.68947,-3.77063 -11.138376,-3.77063 -5.814246,0 -8.918364,1.44978 -11.205819,3.92994 0.449501,1.21531 1.148715,1.24859 1.298549,1.39842 z"
       id="path144" />
    <line
       fill="none"
       stroke="#000000"
       stroke-width="0.84365"
       x1="99.048996"
       y1="155.54668"
       x2="99.048996"
       y2="158.67651"
       id="line146" />
    <polygon
       fill="#ffffff"
       stroke="#000000"
       stroke-width="2.4221"
       points="-18.1726,0.327 -9.8669,8.6326 -5.714,4.4798 15.0501,4.4798 15.0501,27.289 10.8973,31.4418 19.203,39.7475 27.5087,31.4418 23.3873,27.3204 23.3873,4.4798 44.0571,4.4798 48.2099,8.6326 56.5156,0.327 48.2099,-7.9787 44.0886,-3.8573 23.3873,-3.8573 23.3873,-22.5262 27.5087,-26.6476 19.203,-34.947 10.8973,-26.6476 15.0501,-22.4822 15.0501,-3.8573 -5.7455,-3.8573 -9.8669,-7.9787 "
       id="polygon148"
       transform="matrix(0.26458333,0,0,0.26458333,92.078651,140.91808)" />
  </g>
</svg>
