<?xml version="1.0" encoding="UTF-8" standalone="no"?>
<svg
   xmlns:dc="http://purl.org/dc/elements/1.1/"
   xmlns:cc="http://creativecommons.org/ns#"
   xmlns:rdf="http://www.w3.org/1999/02/22-rdf-syntax-ns#"
   xmlns:svg="http://www.w3.org/2000/svg"
   xmlns="http://www.w3.org/2000/svg"
   xmlns:sodipodi="http://sodipodi.sourceforge.net/DTD/sodipodi-0.dtd"
   xmlns:inkscape="http://www.inkscape.org/namespaces/inkscape"
   width="53.08902mm"
   height="51.298805mm"
   viewBox="0 0 53.08902 51.298805"
   version="1.1"
   id="svg1049"
   inkscape:version="1.0.2 (1.0.2+r75+1)"
   sodipodi:docname="king-black.svg">
  <defs
     id="defs1043" />
  <sodipodi:namedview
     id="base"
     pagecolor="#ffffff"
     bordercolor="#666666"
     borderopacity="1.0"
     inkscape:pageopacity="0.0"
     inkscape:pageshadow="2"
     inkscape:zoom="0.35"
     inkscape:cx="68.897132"
     inkscape:cy="142.65687"
     inkscape:document-units="mm"
     inkscape:current-layer="layer1"
     inkscape:document-rotation="0"
     showgrid="false"
     fit-margin-top="0"
     fit-margin-left="0"
     fit-margin-right="0"
     fit-margin-bottom="0"
     inkscape:window-width="1366"
     inkscape:window-height="711"
     inkscape:window-x="0"
     inkscape:window-y="0"
     inkscape:window-maximized="1" />
  <metadata
     id="metadata1046">
    <rdf:RDF>
      <cc:Work
         rdf:about="">
        <dc:format>image/svg+xml</dc:format>
        <dc:type
           rdf:resource="http://purl.org/dc/dcmitype/StillImage" />
        <dc:title></dc:title>
      </cc:Work>
    </rdf:RDF>
  </metadata>
  <g
     inkscape:label="Layer 1"
     inkscape:groupmode="layer"
     id="layer1"
     transform="translate(-87.604301,-110.42204)">
    <path
       stroke="#000000"
       stroke-width="0.257969"
       d="m 119.03621,126.89184 c 1.12583,-0.66577 1.60136,-1.55625 1.60136,-2.53624 0,-0.28694 0.0406,-13.80458 0.0406,-13.80458 h -13.4017 c 0,0 -0.063,13.63392 -0.063,13.80458 0,0.98724 0.69951,1.88389 1.84076,2.55122 -0.80719,0.11747 -1.60546,0.26133 -2.39482,0.4345 1.26243,0.80679 2.45491,1.74897 3.55804,2.8236 1.56318,1.52056 2.85649,3.20443 3.87183,5.02005 1.01529,-1.81562 2.30942,-3.49951 3.87101,-5.02005 1.10551,-1.07463 2.29884,-2.01842 3.56127,-2.82516 -0.80743,-0.17481 -1.63984,-0.31631 -2.47224,-0.44117 z"
       id="path2" />
    <path
       d="m 131.3641,157.61581 c -0.82915,-1.6624 -0.85188,-3.83603 -0.48366,-5.30415 0.37719,-1.51032 3.95475,-4.36846 3.95475,-4.36846 6.30238,-6.13007 7.74526,-14.86839 3.2239,-19.51651 -4.52295,-4.64772 -13.29597,-3.44339 -19.59811,2.68743 -1.88182,1.83144 -3.32552,3.89498 -4.31245,6.01337 -0.98607,-2.11839 -2.43136,-4.1819 -4.31241,-6.01337 -6.30111,-6.13082 -15.075643,-7.33513 -19.598113,-2.68743 -4.520935,4.64772 -3.07721,13.3867 3.223577,19.51651 0.284507,0.27639 3.42519,2.85814 3.802751,4.36846 0.376767,1.50873 0.429207,3.67755 -0.477176,5.36017 h 0.136154 c -0.01992,0.0114 -0.03942,0.0187 -0.05974,0.0301 5.214667,2.57196 11.083447,4.01891 17.289827,4.01891 6.20141,-0.008 11.98661,-1.53995 17.20578,-4.11207"
       id="path4"
       style="stroke-width:0.264583" />
    <g
       id="g10"
       transform="matrix(0.26458333,0,0,0.26458333,42.427032,59.355704)">
      <path
         stroke="#ffffff"
         stroke-width="3.1741"
         stroke-linecap="round"
         d="m 209.1954,370.2128 c 18.9687,-8.8515 39.9428,-13.7641 62.2548,-13.7641 21.4327,0 42.0035,5.2628 60.3546,12.7379"
         id="path6" />
      <path
         stroke="#ffffff"
         stroke-width="3.1741"
         stroke-linecap="round"
         d="m 340.9221,333.4665 c -19.7552,-6.704 -43.9635,-10.6549 -70.1201,-10.6549 -26.3853,0 -50.7842,4.0248 -70.636,10.8361"
         id="path8" />
    </g>
    <polygon
       fill="none"
       stroke="#ffffff"
       stroke-width="1.9503"
       stroke-linejoin="bevel"
       points="291.623,235.277 249.1192,197.1778 291.623,197.1778 249.1192,235.277 "
       id="polygon12"
       transform="matrix(0.26458333,0,0,0.26458333,42.427032,59.355704)" />
    <path
       fill="none"
       stroke="#ffffff"
       stroke-width="0.839814"
       stroke-linecap="round"
       d="m 129.358,153.73684 c -4.81311,-1.69003 -9.93389,-2.91582 -15.24547,-2.91582 -5.41388,0 -10.62895,1.26 -15.520172,3.00929"
       id="path14" />
    <polygon
       fill="#ffffff"
       stroke="#000000"
       stroke-width="0.9974"
       points="280.9262,335.2912 270.9531,330.2889 260.98,335.2912 270.9531,340.262 "
       id="polygon16"
       transform="matrix(0.26458333,0,0,0.26458333,42.427032,59.355704)" />
    <polygon
       fill="#ffffff"
       stroke="#000000"
       stroke-width="0.9974"
       points="239.9012,338.5631 229.2674,335.2283 220.2381,341.7722 230.8719,345.0755 "
       id="polygon18"
       transform="matrix(0.26458333,0,0,0.26458333,42.427032,59.355704)" />
    <polygon
       fill="#ffffff"
       stroke="#000000"
       stroke-width="0.9974"
       points="302.005,338.5631 312.6388,335.2283 321.6996,341.7722 311.0343,345.0755 "
       id="polygon20"
       transform="matrix(0.26458333,0,0,0.26458333,42.427032,59.355704)" />
    <rect
       x="108.33982"
       y="111.52567"
       fill="none"
       stroke="#ffffff"
       stroke-width="0.516017"
       stroke-linejoin="bevel"
       width="11.250745"
       height="10.080414"
       id="rect22" />
    <ellipse
       fill="none"
       stroke="#ffffff"
       stroke-width="0.516017"
       cx="114.05845"
       cy="126.1926"
       rx="4.7432117"
       ry="3.5033214"
       id="ellipse24" />
  </g>
</svg>
