<?xml version="1.0" encoding="UTF-8" standalone="no"?>
<svg
   xmlns:dc="http://purl.org/dc/elements/1.1/"
   xmlns:cc="http://creativecommons.org/ns#"
   xmlns:rdf="http://www.w3.org/1999/02/22-rdf-syntax-ns#"
   xmlns:svg="http://www.w3.org/2000/svg"
   xmlns="http://www.w3.org/2000/svg"
   xmlns:sodipodi="http://sodipodi.sourceforge.net/DTD/sodipodi-0.dtd"
   xmlns:inkscape="http://www.inkscape.org/namespaces/inkscape"
   width="54.095058mm"
   height="52.178154mm"
   viewBox="0 0 54.095058 52.178154"
   version="1.1"
   id="svg956"
   inkscape:version="1.0.2 (1.0.2+r75+1)"
   sodipodi:docname="king-white.svg">
  <defs
     id="defs950" />
  <sodipodi:namedview
     id="base"
     pagecolor="#ffffff"
     bordercolor="#666666"
     borderopacity="1.0"
     inkscape:pageopacity="0.0"
     inkscape:pageshadow="2"
     inkscape:zoom="0.35"
     inkscape:cx="-14.915978"
     inkscape:cy="181.46154"
     inkscape:document-units="mm"
     inkscape:current-layer="layer1"
     inkscape:document-rotation="0"
     showgrid="false"
     fit-margin-top="0"
     fit-margin-left="0"
     fit-margin-right="0"
     fit-margin-bottom="0"
     inkscape:window-width="1366"
     inkscape:window-height="711"
     inkscape:window-x="0"
     inkscape:window-y="0"
     inkscape:window-maximized="1" />
  <metadata
     id="metadata953">
    <rdf:RDF>
      <cc:Work
         rdf:about="">
        <dc:format>image/svg+xml</dc:format>
        <dc:type
           rdf:resource="http://purl.org/dc/dcmitype/StillImage" />
        <dc:title></dc:title>
      </cc:Work>
    </rdf:RDF>
  </metadata>
  <g
     inkscape:label="Layer 1"
     inkscape:groupmode="layer"
     id="layer1"
     transform="translate(-109.77985,-100.15497)">
    <path
       fill="#ffffff"
       stroke="#20201e"
       stroke-width="1.0078"
       d="m 143.41697,100.65888 h -13.40086 v 14.00519 c 0,2.06187 3.01578,3.73523 6.73399,3.73523 3.7206,0 6.64051,-1.67331 6.64051,-3.73523 0,-0.1823 0.025,-14.00519 0.025,-14.00519 z"
       id="path26" />
    <rect
       x="130.01526"
       y="100.65887"
       fill="#ffffff"
       stroke="#20201e"
       stroke-width="1.0078"
       width="13.400854"
       height="12.008247"
       id="rect28" />
    <line
       fill="none"
       stroke="#20201e"
       stroke-width="1.0078"
       x1="130.01526"
       y1="100.65887"
       x2="143.41698"
       y2="112.66628"
       id="line30" />
    <line
       fill="none"
       stroke="#20201e"
       stroke-width="1.0078"
       x1="143.41698"
       y1="100.65887"
       x2="130.01526"
       y2="112.66628"
       id="line32" />
    <path
       fill="#ffffff"
       stroke="#20201e"
       stroke-width="1.0078"
       stroke-linejoin="round"
       d="m 154.02178,147.68547 c -5.21393,-2.57281 -10.88114,-3.92544 -17.0884,-3.92544 -6.20723,0 -12.14308,1.44246 -17.3581,4.01484 5.2151,2.57278 11.05014,4.05432 17.25652,4.05432 6.20972,0.008 11.9783,-1.56493 17.18911,-4.13705 z"
       id="path34" />
    <path
       fill="#ffffff"
       stroke="#20201e"
       stroke-width="1.0078"
       stroke-linejoin="bevel"
       d="m 156.62722,138.86201 c 0.29913,-0.26175 0.59584,-0.52959 0.88683,-0.81208 6.30155,-6.13125 7.74525,-14.86922 3.22389,-19.51652 -4.52295,-4.64772 -13.29597,-3.44339 -19.59726,2.68743 -1.88265,1.83105 -3.32719,3.89541 -4.31319,6.01337 -0.98523,-2.11796 -2.43051,-4.18232 -4.31242,-6.01337 -6.30113,-6.13082 -15.07648,-7.33512 -19.59726,-2.68743 -4.52252,4.6473 -3.07922,13.38588 3.22316,19.51652 0.29183,0.28329 0.58975,0.55234 0.89093,0.81412 5.44107,-2.04322 12.31873,-3.26419 19.80038,-3.26419 7.47498,0 14.35063,1.22364 19.7862,3.26302 z"
       id="path36" />
    <path
       fill="#ffffff"
       stroke="#20201e"
       stroke-width="1.0078"
       d="m 136.83265,127.24167 c 0.98608,-2.11839 2.43052,-4.18232 4.31319,-6.01252 1.53394,-1.49408 3.21664,-2.69317 4.94889,-3.58849 -2.87279,-0.80802 -5.99262,-1.25143 -9.25716,-1.25143 -3.26617,0 -6.38937,0.44466 -9.26295,1.25394 1.72982,0.89501 3.41169,2.09317 4.94564,3.58608 1.88124,1.83129 3.32129,3.89565 4.31184,6.00996 z"
       id="path38" />
    <path
       fill="#ffffff"
       stroke="#20201e"
       stroke-width="1.0078"
       stroke-linejoin="bevel"
       d="m 156.55229,138.86201 -0.003,-0.004 c -5.43824,-2.04081 -12.31207,-3.25969 -19.78705,-3.25969 -7.48146,0 -14.35896,1.22097 -19.79954,3.26419 0,0 2.60975,2.04404 2.98741,3.55393 0.37719,1.50874 0.53896,3.67266 -0.36782,5.35493 5.21436,-2.57238 11.15089,-4.01484 17.35812,-4.01484 6.08851,0 11.94996,1.44489 17.08841,3.92544 -0.82915,-1.66116 -0.83079,-3.79825 -0.46337,-5.26553 0.3746,-1.49833 2.98834,-3.54602 2.98834,-3.54602 z"
       id="path40" />
    <path
       fill="#ffffff"
       stroke="#20201e"
       stroke-width="1.0078"
       stroke-linejoin="bevel"
       d="m 119.57692,147.77704 c 5.21433,-2.57238 11.15087,-4.01484 17.3581,-4.01484 6.08851,0 11.94914,1.44489 17.0884,3.92544 -0.35279,-0.70967 -0.72347,-2.52201 -0.66413,-3.5328 -5.16514,-2.03057 -10.71967,-3.14065 -16.50653,-3.14065 -5.85362,0 -11.46717,1.13315 -16.68137,3.2064 0.0666,1.87291 -0.19979,2.81353 -0.591,3.54603 z"
       id="path42" />
    <polygon
       points="280.8004,58.4352 271.079,53.5588 261.3261,58.4352 271.079,63.3117 "
       id="polygon44"
       transform="matrix(0.26458333,0,0,0.26458333,65.142978,122.91822)" />
    <polygon
       points="240.6878,61.6443 230.3056,58.4038 221.4651,64.7904 231.8472,68.0308 "
       id="polygon46"
       transform="matrix(0.26458333,0,0,0.26458333,65.142978,122.91822)" />
    <polygon
       points="301.4388,61.6443 311.8208,58.4038 320.6613,64.7904 310.2793,68.0308 "
       id="polygon48"
       transform="matrix(0.26458333,0,0,0.26458333,65.142978,122.91822)" />
    <ellipse
       fill="#ffffff"
       stroke="#20201e"
       stroke-width="1.0078"
       cx="136.83266"
       cy="116.57941"
       rx="4.7440324"
       ry="3.5029244"
       id="ellipse50" />
  </g>
</svg>
