<?xml version="1.0" encoding="UTF-8" standalone="no"?>
<svg
   xmlns:dc="http://purl.org/dc/elements/1.1/"
   xmlns:cc="http://creativecommons.org/ns#"
   xmlns:rdf="http://www.w3.org/1999/02/22-rdf-syntax-ns#"
   xmlns:svg="http://www.w3.org/2000/svg"
   xmlns="http://www.w3.org/2000/svg"
   xmlns:sodipodi="http://sodipodi.sourceforge.net/DTD/sodipodi-0.dtd"
   xmlns:inkscape="http://www.inkscape.org/namespaces/inkscape"
   width="56.824947mm"
   height="53.548244mm"
   viewBox="0 0 56.824947 53.548244"
   version="1.1"
   id="svg688"
   inkscape:version="1.0.2 (1.0.2+r75+1)">
  <defs
     id="defs682" />
  <sodipodi:namedview
     id="base"
     pagecolor="#ffffff"
     bordercolor="#666666"
     borderopacity="1.0"
     inkscape:pageopacity="0.0"
     inkscape:pageshadow="2"
     inkscape:zoom="0.35"
     inkscape:cx="82.396627"
     inkscape:cy="239.53819"
     inkscape:document-units="mm"
     inkscape:current-layer="layer1"
     inkscape:document-rotation="0"
     showgrid="false"
     fit-margin-top="0"
     fit-margin-left="0"
     fit-margin-right="0"
     fit-margin-bottom="0"
     inkscape:window-width="1366"
     inkscape:window-height="735"
     inkscape:window-x="0"
     inkscape:window-y="0"
     inkscape:window-maximized="0" />
  <metadata
     id="metadata685">
    <rdf:RDF>
      <cc:Work
         rdf:about="">
        <dc:format>image/svg+xml</dc:format>
        <dc:type
           rdf:resource="http://purl.org/dc/dcmitype/StillImage" />
        <dc:title></dc:title>
      </cc:Work>
    </rdf:RDF>
  </metadata>
  <g
     inkscape:label="Layer 1"
     inkscape:groupmode="layer"
     id="layer1"
     transform="translate(-84.032559,-84.788855)">
    <path
       fill="#20201e"
       stroke="#20201e"
       stroke-width="0.710142"
       d="m 126.40232,91.346871 c 0,0 -0.92347,-4.96229 -0.92347,-5.65536 0,-0.69178 -0.69175,-0.80719 -1.38438,0.11623 -0.6926,0.92345 -3.80799,5.42361 -3.80799,5.42361 l 6.10984,0.10822 z"
       id="path244" />
    <path
       fill="#20201e"
       stroke="#20201e"
       stroke-width="0.710142"
       d="m 85.001093,129.41266 c 0.313372,-2.23793 0.740939,-4.37094 1.261586,-6.39993 l 1.672537,-0.66738 -1.116912,-1.33477 c 0.636482,-2.14601 1.375807,-4.16526 2.187893,-6.0638 l 1.58189,-0.44792 -0.781579,-1.3376 c 0.849895,-1.80625 1.76321,-3.49059 2.710974,-5.05902 l 1.475025,-0.2963 -0.528769,-1.21814 c 1.062487,-1.63957 2.154184,-3.13701 3.237732,-4.49615 l 1.561174,-0.1711 -0.417009,-1.21606 c 1.266507,-1.487989 2.501295,-2.782559 3.643765,-3.888469 l 1.56241,-0.0878 -0.27273,-1.11892 c 2.7858,-2.52077 4.75419,-3.74748 4.75419,-3.74748 l 3.53896,1.07672 c 0,0 1.69204,-0.92347 3.07724,-1.8461 0,0 0.92263,-3.07721 1.23029,-4.7701 0.30808,-1.69203 1.23071,-0.92262 1.53836,-0.46132 0.30851,0.46132 3.50076,4.00068 3.50076,4.00068 0,0 1.90952,-0.26215 3.269,0 1.9997,0.38492 2.92357,1.73106 5.23182,3.92385 1.68312,1.59853 2.69275,3.0008 3.26943,4.50014 0.57674,1.50016 -0.11462,1.50016 0.11502,2.884509 0.23167,1.3852 6.46295,11.77018 7.15467,13.0396 0.69382,1.26891 2.36469,5.15207 -0.92262,7.61598 -0.92263,0.69339 -1.61645,1.03883 -2.19239,1.26976 0,0 -0.92348,-0.23088 -1.26892,-0.69178 -0.0618,-0.0829 -0.0935,-0.13333 -0.10853,-0.16095 -0.0114,-0.0325 -0.0171,-0.0325 0,0 0.0354,0.0902 0.11583,0.42759 -0.23818,0.8527 -0.57674,0.69339 -1.3181,0.64138 -1.73149,0.69339 -0.61494,0.0764 -1.73024,-0.46254 -2.65371,-1.84692 -0.92388,-1.38594 -1.50059,-1.84692 -2.19279,-2.65486 -0.69178,-0.80721 -4.51112,-2.59476 -6.0012,-5.07732 -0.34589,-0.57552 -1.15345,-0.3455 -1.73024,0.11583 -0.57674,0.46212 -3.80842,0.57756 -5.19277,-1.73106 0,0 -0.65439,6.06988 2.07735,10.2702 4.4998,6.92343 12.11564,8.65365 14.42471,15.11726 H 84.38763 c 0,-2.23383 0.117448,-4.37661 0.330835,-6.43896 l 1.572921,-0.83158 -1.316857,-1.29855 z"
       id="path246" />
    <path
       fill="none"
       stroke="#ffffff"
       stroke-width="0.710142"
       d="m 109.37969,94.476711 c 0,0 -20.154974,15.079819 -20.154974,42.311869"
       id="path248" />
    <path
       fill="none"
       stroke="#20201e"
       stroke-width="0.710142"
       d="m 134.96776,122.06253 c -0.0166,-0.025 -0.0166,-0.025 0,0 z"
       id="path250" />
    <path
       fill="none"
       stroke="#ffffff"
       stroke-width="0.710142"
       d="m 113.53339,104.94 c -0.3841,4.30752 1.61644,7.38433 1.69286,7.65376 0,0 -4.84725,-2.4992 -5.30898,-5.80851"
       id="path252" />
    <path
       fill="none"
       stroke="#ffffff"
       stroke-width="0.710142"
       d="m 115.22315,112.58979 c 0,0 -3.23122,1.57782 -5.61589,0.57756"
       id="path254" />
    <path
       fill="none"
       stroke="#20201e"
       stroke-width="0.710142"
       d="m 135.07597,122.22901 c 0,0 -2.15458,-2.77117 -2.77074,-4.04008"
       id="path256" />
    <path
       fill="none"
       stroke="#ffffff"
       stroke-width="0.710142"
       d="m 121.79916,96.665921 c 0,0 3.54827,0.0179 4.73146,1.96115 1.6156,2.654879 -0.23045,3.000399 -0.23045,3.000399 0,0 -1.84653,0.57795 -3.11584,-1.15345 -1.35141,-1.842849 -0.23088,-3.000399 -0.23088,-3.000399 l -1.14871,-0.80743 z"
       id="path258" />
    <path
       fill="none"
       stroke="#ffffff"
       stroke-width="0.710142"
       d="m 138.9966,116.22739 c -1.26976,-0.3455 -2.07735,-0.23167 -2.6533,0.11626 0,0 0.57595,-1.73189 -0.46133,-3.23205 -1.03965,-1.50016 -2.77074,-1.6152 -4.27013,-4.50014"
       id="path260" />
    <line
       fill="none"
       stroke="#ffffff"
       stroke-width="0.710142"
       x1="105.30093"
       y1="98.289108"
       x2="103.11169"
       y2="96.899002"
       id="line262" />
    <line
       fill="none"
       stroke="#ffffff"
       stroke-width="0.710142"
       x1="100.80096"
       y1="103.25024"
       x2="98.608406"
       y2="102.20973"
       id="line264" />
    <line
       fill="none"
       stroke="#ffffff"
       stroke-width="0.710142"
       x1="96.762955"
       y1="109.00212"
       x2="94.224129"
       y2="107.96162"
       id="line266" />
    <line
       fill="none"
       stroke="#ffffff"
       stroke-width="0.710142"
       x1="93.529907"
       y1="115.59477"
       x2="90.877861"
       y2="114.67079"
       id="line268" />
    <line
       fill="none"
       stroke="#ffffff"
       stroke-width="0.710142"
       x1="90.992744"
       y1="123.32779"
       x2="88.222496"
       y2="122.52034"
       id="line270" />
    <line
       fill="none"
       stroke="#ffffff"
       stroke-width="0.710142"
       x1="89.491913"
       y1="131.16902"
       x2="86.607643"
       y2="130.82773"
       id="line272" />
  </g>
</svg>
