<?xml version="1.0" encoding="UTF-8" standalone="no"?>
<svg
   xmlns:dc="http://purl.org/dc/elements/1.1/"
   xmlns:cc="http://creativecommons.org/ns#"
   xmlns:rdf="http://www.w3.org/1999/02/22-rdf-syntax-ns#"
   xmlns:svg="http://www.w3.org/2000/svg"
   xmlns="http://www.w3.org/2000/svg"
   xmlns:sodipodi="http://sodipodi.sourceforge.net/DTD/sodipodi-0.dtd"
   xmlns:inkscape="http://www.inkscape.org/namespaces/inkscape"
   width="57.030972mm"
   height="53.759384mm"
   viewBox="0 0 57.030972 53.759384"
   version="1.1"
   id="svg586"
   inkscape:version="1.0.2 (1.0.2+r75+1)"
   sodipodi:docname="knite-white.svg">
  <defs
     id="defs580" />
  <sodipodi:namedview
     id="base"
     pagecolor="#ffffff"
     bordercolor="#666666"
     borderopacity="1.0"
     inkscape:pageopacity="0.0"
     inkscape:pageshadow="2"
     inkscape:zoom="0.35"
     inkscape:cx="993.48935"
     inkscape:cy="661.59254"
     inkscape:document-units="mm"
     inkscape:current-layer="layer1"
     inkscape:document-rotation="0"
     showgrid="false"
     fit-margin-top="0"
     fit-margin-left="0"
     fit-margin-right="0"
     fit-margin-bottom="0"
     inkscape:window-width="1366"
     inkscape:window-height="711"
     inkscape:window-x="0"
     inkscape:window-y="0"
     inkscape:window-maximized="1" />
  <metadata
     id="metadata583">
    <rdf:RDF>
      <cc:Work
         rdf:about="">
        <dc:format>image/svg+xml</dc:format>
        <dc:type
           rdf:resource="http://purl.org/dc/dcmitype/StillImage" />
        <dc:title></dc:title>
      </cc:Work>
    </rdf:RDF>
  </metadata>
  <g
     inkscape:label="Layer 1"
     inkscape:groupmode="layer"
     id="layer1"
     transform="translate(157.02739,26.879693)">
    <path
       fill="#ffffff"
       stroke="#20201e"
       stroke-width="0.924639"
       d="m -114.55717,-20.214697 c 0,0 -0.92348,-4.962287 -0.92348,-5.654516 0,-0.69223 -0.69136,-0.808011 -1.38438,0.115437 -0.69257,0.923052 -3.80799,5.423615 -3.80799,5.423615 l 6.10984,0.114882 z"
       id="path214" />
    <path
       fill="#ffffff"
       stroke="#20201e"
       stroke-width="0.924639"
       d="m -155.96007,17.847784 c 0.31297,-2.237925 0.74136,-4.371366 1.26201,-6.39953 l 1.67214,-0.667384 -1.1161,-1.3355907 c 0.63569,-2.1452681 1.37507,-4.165256 2.18747,-6.0642235 l 1.58232,-0.4470929 -0.7824,-1.3379979 c 0.84989,-1.80580765 1.76318,-3.4901716 2.71063,-5.0586745 l 1.47542,-0.2963069 -0.52919,-1.2181416 c 1.06288,-1.6395964 2.15458,-3.1370058 3.2377,-4.4961439 l 1.5616,-0.1711061 -0.41701,-1.216051 c 1.26733,-1.488414 2.50254,-2.782967 3.64458,-3.888899 l 1.56202,-0.08779 -0.27312,-1.118923 c 2.78579,-2.520765 4.75419,-3.747479 4.75419,-3.747479 l 3.53896,1.077463 c 0,0 1.69203,-0.923475 3.07723,-1.846527 0,0 0.92263,-3.077236 1.22987,-4.76967 0.3085,-1.692434 1.23113,-0.923475 1.53879,-0.461725 0.3085,0.461725 3.50075,3.999865 3.50075,3.999865 0,0 1.90987,-0.260932 3.26986,0 1.99935,0.38571 2.92274,1.731487 5.23181,3.923851 1.68228,1.599379 2.6919,3.001221 3.26869,4.500562 0.57674,1.500161 -0.11501,1.500161 0.11502,2.884937 0.23209,1.3847765 6.46295,11.7701749 7.15425,13.0395928 0.69382,1.2693385 2.365534,5.1513316 -0.9222,7.6159782 -0.92263,0.692573 -1.61603,1.03968 -2.19197,1.269339 0,0 -0.92387,-0.229632 -1.26934,-0.691357 -0.0618,-0.0825 -0.0935,-0.1329 -0.10853,-0.160946 -0.011,-0.03088 -0.0171,-0.03291 0,0 0.0354,0.08983 0.11583,0.42717 -0.23818,0.852303 -0.57716,0.692996 -1.3181,0.641376 -1.73064,0.692996 -0.61576,0.07723 -1.73106,-0.460904 -2.65454,-1.846527 -0.92347,-1.3847761 -1.50016,-1.8469502 -2.19321,-2.6545379 -0.69135,-0.8076142 -4.5108,-2.5947687 -6.0008,-5.0773277 -0.34589,-0.5759185 -1.15345,-0.3462866 -1.73024,0.1158346 -0.57674,0.4617244 -3.80842,0.577559 -5.19237,-1.7314862 0,0 -0.65479,6.0707057 2.07692,10.2710192 4.4998,6.923828 12.11646,8.653674 14.42554,15.117286 h -47.33293 c 0,-2.233427 0.11787,-4.377849 0.33086,-6.440567 l 1.57332,-0.829971 -1.3177,-1.281907 z"
       id="path216" />
    <path
       fill="none"
       stroke="#20201e"
       stroke-width="0.710142"
       d="m -131.5798,-17.084862 c 0,0 -20.15414,15.0798215 -20.15414,42.312722"
       id="path218" />
    <path
       fill="none"
       stroke="#20201e"
       stroke-width="0.710142"
       d="m -105.99174,10.680778 c -0.0166,-0.03328 -0.0166,-0.03328 0,0 z"
       id="path220" />
    <path
       fill="none"
       stroke="#20201e"
       stroke-width="0.710142"
       d="m -127.42611,-6.6248772 c -0.38449,4.3070992 1.61602,7.38433558 1.69286,7.6533639 0,0 -4.84767,-2.4996245 -5.30858,-5.8085037"
       id="path222" />
    <path
       fill="none"
       stroke="#20201e"
       stroke-width="0.710142"
       d="m -125.73635,1.0332227 c 0,0 -3.23204,1.5782396 -5.61631,0.5779823"
       id="path224" />
    <path
       fill="none"
       stroke="#20201e"
       stroke-width="0.710142"
       d="m -105.88352,10.838946 c 0,0 -2.15459,-2.7698969 -2.77075,-4.0392354"
       id="path226" />
    <path
       fill="none"
       stroke="#20201e"
       stroke-width="0.710142"
       d="m -119.16034,-14.891466 c 0,0 3.54827,0.01667 4.73189,1.961145 1.61477,2.654538 -0.23085,3.0004012 -0.23085,3.0004012 0,0 -1.84611,0.5775589 -3.11587,-1.1534512 -1.35141,-1.843273 -0.23085,-3.000401 -0.23085,-3.000401 l -1.14871,-0.808276 z"
       id="path228" />
    <path
       fill="none"
       stroke="#20201e"
       stroke-width="0.710142"
       d="m -101.9629,4.8373225 c -1.27058,-0.3458898 -2.07775,-0.2300552 -2.65369,0.1158346 0,0 0.57594,-1.7310629 -0.46173,-3.2316473 -1.03965,-1.500161 -2.76989,-1.61602204 -4.27013,-4.5005624"
       id="path230" />
    <line
       fill="none"
       stroke="#20201e"
       stroke-width="0.710142"
       x1="-135.65858"
       y1="-13.276608"
       x2="-137.84781"
       y2="-14.660908"
       id="line232" />
    <line
       fill="none"
       stroke="#20201e"
       stroke-width="0.710142"
       x1="-140.15939"
       y1="-8.3146648"
       x2="-142.35277"
       y2="-9.3526783"
       id="line234" />
    <line
       fill="none"
       stroke="#20201e"
       stroke-width="0.710142"
       x1="-144.19736"
       y1="-2.5544214"
       x2="-146.73619"
       y2="-3.5949218"
       id="line236" />
    <line
       fill="none"
       stroke="#20201e"
       stroke-width="0.710142"
       x1="-147.4296"
       y1="4.0298939"
       x2="-150.08328"
       y2="3.1059155"
       id="line238" />
    <line
       fill="none"
       stroke="#20201e"
       stroke-width="0.710142"
       x1="-149.96758"
       y1="11.762897"
       x2="-152.73782"
       y2="10.955467"
       id="line240" />
    <line
       fill="none"
       stroke="#20201e"
       stroke-width="0.710142"
       x1="-151.4684"
       y1="19.612474"
       x2="-154.35271"
       y2="19.262856"
       id="line242" />
  </g>
</svg>
