<?xml version="1.0" encoding="UTF-8" standalone="no"?>
<svg
   xmlns:dc="http://purl.org/dc/elements/1.1/"
   xmlns:cc="http://creativecommons.org/ns#"
   xmlns:rdf="http://www.w3.org/1999/02/22-rdf-syntax-ns#"
   xmlns:svg="http://www.w3.org/2000/svg"
   xmlns="http://www.w3.org/2000/svg"
   xmlns:sodipodi="http://sodipodi.sourceforge.net/DTD/sodipodi-0.dtd"
   xmlns:inkscape="http://www.inkscape.org/namespaces/inkscape"
   width="34.969898mm"
   height="52.5984mm"
   viewBox="0 0 34.969898 52.5984"
   version="1.1"
   id="svg1272"
   inkscape:version="1.0.2 (1.0.2+r75+1)"
   sodipodi:docname="pone-white.svg">
  <defs
     id="defs1266" />
  <sodipodi:namedview
     id="base"
     pagecolor="#ffffff"
     bordercolor="#666666"
     borderopacity="1.0"
     inkscape:pageopacity="0.0"
     inkscape:pageshadow="2"
     inkscape:zoom="0.35"
     inkscape:cx="228.94197"
     inkscape:cy="122.25568"
     inkscape:document-units="mm"
     inkscape:current-layer="layer1"
     inkscape:document-rotation="0"
     showgrid="false"
     fit-margin-top="0"
     fit-margin-left="0"
     fit-margin-right="0"
     fit-margin-bottom="0"
     inkscape:window-width="1366"
     inkscape:window-height="711"
     inkscape:window-x="0"
     inkscape:window-y="0"
     inkscape:window-maximized="1" />
  <metadata
     id="metadata1269">
    <rdf:RDF>
      <cc:Work
         rdf:about="">
        <dc:format>image/svg+xml</dc:format>
        <dc:type
           rdf:resource="http://purl.org/dc/dcmitype/StillImage" />
        <dc:title></dc:title>
      </cc:Work>
    </rdf:RDF>
  </metadata>
  <g
     inkscape:label="Layer 1"
     inkscape:groupmode="layer"
     id="layer1"
     transform="translate(-45.259103,-115.81985)">
    <path
       fill="#ffffff"
       stroke="#000000"
       stroke-width="0.924639"
       stroke-linejoin="round"
       d="m 69.357524,160.47613 c -3.121501,-6.19749 -2.806092,-17.23572 -2.545133,-21.51179 4.936702,-0.33856 8.487172,-1.27383 8.487172,-2.37569 0,-1.08154 -3.417438,-2.00335 -8.211053,-2.35654 3.061335,-1.57739 5.156174,-4.76758 5.156174,-8.44889 0,-5.24721 -4.252251,-9.50105 -9.500209,-9.50105 -5.247957,0 -9.500208,4.25392 -9.500208,9.50105 0,3.68123 2.093965,6.87142 5.156147,8.44889 -4.792821,0.35319 -8.21182,1.275 -8.21182,2.35654 0,1.10186 3.552375,2.03713 8.488018,2.37569 0.261753,4.27622 0.577136,15.31456 -2.544339,21.51179 -6.117854,1.22986 -10.410851,4.11647 -10.410851,7.4798 h 34.04526 c 0,-3.36291 -4.286885,-6.25134 -10.405004,-7.48332 z"
       id="path212" />
  </g>
</svg>
