<?xml version="1.0" encoding="UTF-8" standalone="no"?>
<svg
   xmlns:dc="http://purl.org/dc/elements/1.1/"
   xmlns:cc="http://creativecommons.org/ns#"
   xmlns:rdf="http://www.w3.org/1999/02/22-rdf-syntax-ns#"
   xmlns:svg="http://www.w3.org/2000/svg"
   xmlns="http://www.w3.org/2000/svg"
   xmlns:sodipodi="http://sodipodi.sourceforge.net/DTD/sodipodi-0.dtd"
   xmlns:inkscape="http://www.inkscape.org/namespaces/inkscape"
   width="59.178459mm"
   height="53.110863mm"
   viewBox="0 0 59.178459 53.110863"
   version="1.1"
   id="svg1134"
   inkscape:version="1.0.2 (1.0.2+r75+1)"
   sodipodi:docname="queen-white.svg">
  <defs
     id="defs1128" />
  <sodipodi:namedview
     id="base"
     pagecolor="#ffffff"
     bordercolor="#666666"
     borderopacity="1.0"
     inkscape:pageopacity="0.0"
     inkscape:pageshadow="2"
     inkscape:zoom="0.35"
     inkscape:cx="186.11918"
     inkscape:cy="200.36707"
     inkscape:document-units="mm"
     inkscape:current-layer="layer1"
     inkscape:document-rotation="0"
     showgrid="false"
     fit-margin-top="0"
     fit-margin-left="0"
     fit-margin-right="0"
     fit-margin-bottom="0"
     inkscape:window-width="1366"
     inkscape:window-height="711"
     inkscape:window-x="0"
     inkscape:window-y="0"
     inkscape:window-maximized="1" />
  <metadata
     id="metadata1131">
    <rdf:RDF>
      <cc:Work
         rdf:about="">
        <dc:format>image/svg+xml</dc:format>
        <dc:type
           rdf:resource="http://purl.org/dc/dcmitype/StillImage" />
        <dc:title></dc:title>
      </cc:Work>
    </rdf:RDF>
  </metadata>
  <g
     inkscape:label="Layer 1"
     inkscape:groupmode="layer"
     id="layer1"
     transform="translate(-56.5893,-95.152881)">
    <path
       fill="#ffffff"
       stroke="#20201e"
       stroke-width="0.924639"
       stroke-linejoin="bevel"
       d="m 103.1728,143.99988 c -5.04968,-2.36103 -10.584022,-3.60071 -16.693834,-3.60071 -6.109837,0 -12.032376,1.3535 -17.24824,3.71494 5.049679,2.35902 10.777961,3.68728 16.888619,3.68728 6.118145,0.008 11.845104,-1.44005 17.055915,-3.79576 z"
       id="path68" />
    <path
       fill="#ffffff"
       stroke="#20201e"
       stroke-width="0.924639"
       stroke-linejoin="bevel"
       d="m 102.7982,133.40338 -0.003,-0.006 c -4.539168,-1.87124 -9.820701,-3.00972 -16.678039,-3.00972 -6.865647,0 -12.173903,1.13922 -16.84618,3.01546 0,0 0.509694,4.33149 0.530807,5.76381 0.02519,1.61319 -0.425952,4.91885 -0.425952,4.91885 5.215493,-2.36144 10.99603,-3.68888 17.105868,-3.68888 5.992627,0 12.08315,1.22986 16.693836,3.60072 -0.75751,-1.51498 -0.3746,-10.58818 -0.3746,-10.58818 z"
       id="path70" />
    <path
       fill="#ffffff"
       stroke="#20201e"
       stroke-width="0.924639"
       stroke-linejoin="bevel"
       d="m 69.393895,144.05815 c 4.909079,-2.33466 10.977721,-3.66126 17.087585,-3.66126 5.992627,0 11.02352,0.84498 16.69383,3.60072 -0.22841,-0.63691 -0.38126,-2.61549 -0.43085,-3.33327 -5.018823,-1.86442 -10.554039,-2.92275 -16.251021,-2.92275 -5.760138,0 -11.555412,1.11609 -16.754607,3.01871 -0.108214,0.74083 -0.341286,3.28798 -0.341286,3.28798 z"
       id="path72" />
    <path
       fill="#ffffff"
       stroke="#20201e"
       stroke-width="0.924639"
       d="m 114.06061,105.78842 c -1.21364,-0.70885 -2.77272,-0.29914 -3.48159,0.91614 -0.60886,1.04135 -0.39183,2.33299 0.44627,3.12844 -3.46779,4.20346 -9.79736,11.87256 -11.324856,13.73298 -0.448734,-0.20037 -0.913712,-0.3906 -1.397371,-0.56822 0.137372,-1.42666 1.13964,-12.31291 1.671294,-18.10311 1.155113,0.0264 2.220863,-0.7385 2.522433,-1.90463 0.35197,-1.36197 -0.46498,-2.75127 -1.8274,-3.103611 -1.359958,-0.352399 -2.749179,0.465371 -3.102027,1.826551 -0.302393,1.16652 0.257677,2.35254 1.281165,2.88943 -2.507774,5.69188 -7.373752,16.73797 -7.385896,16.78374 -0.0024,0.011 -7.94e-4,0.0224 -0.0033,0.0337 -0.442198,-0.0524 -0.896673,-0.0992 -1.359958,-0.13737 -0.09186,-0.61252 -2.178553,-13.4175 -3.266175,-20.08672 1.250288,-0.29263 2.18096,-1.41158 2.18096,-2.751271 0,-1.561597 -1.265661,-2.829269 -2.828078,-2.829269 -1.562418,0 -2.828846,1.267751 -2.828846,2.829269 0,1.339665 0.933212,2.458591 2.182654,2.751271 -1.082808,6.63932 -3.156453,19.35752 -3.265329,20.07589 -0.483685,0.039 -0.956786,0.085 -1.418511,0.13941 -0.0033,-0.0162 -0.0024,-0.0301 -0.0073,-0.0447 -0.01138,-0.0459 -4.878229,-11.09343 -7.384336,-16.78459 1.021795,-0.53652 1.581071,-1.72206 1.279499,-2.88943 -0.352002,-1.36115 -1.74207,-2.178977 -3.102795,-1.826552 -1.360726,0.352452 -2.178553,1.741642 -1.825784,3.102372 0.302392,1.16768 1.366467,1.93183 2.521585,1.90503 0.531627,5.78371 1.530694,16.64723 1.67132,18.09644 -0.474742,0.17314 -0.931545,0.35808 -1.372129,0.55276 -1.589246,-1.93309 -7.84688,-9.51769 -11.289877,-13.68885 0.839708,-0.79542 1.055979,-2.08709 0.448707,-3.12843 -0.708025,-1.21531 -2.267982,-1.62502 -3.482446,-0.91615 -1.213643,0.70842 -1.624197,2.26756 -0.916146,3.48284 0.608859,1.0405 1.841209,1.48799 2.94595,1.14822 2.070444,5.39231 8.753555,22.74707 9.009089,22.98681 4.606687,-1.87492 9.903936,-3.01546 16.767942,-3.01546 6.860805,0 12.156414,1.13922 16.763762,3.01379 0.25363,-0.24021 7.02498,-17.45215 9.14895,-22.98514 1.10551,0.33977 2.33704,-0.10772 2.94513,-1.14822 0.68257,-1.21446 0.27466,-2.77357 -0.94062,-3.48194 z"
       id="path74" />
    <polygon
       points="517.4178,63.6578 508.4514,59.1903 499.5166,63.6578 508.4514,68.1252 "
       id="polygon76"
       transform="matrix(0.26458333,0,0,0.26458333,-48.319361,117.38468)" />
    <polygon
       points="480.6085,66.5522 471.0759,63.5948 462.959,69.4466 472.4917,72.4039 "
       id="polygon78"
       transform="matrix(0.26458333,0,0,0.26458333,-48.319361,117.38468)" />
    <polygon
       points="536.3259,66.6151 545.8585,63.6263 553.9753,69.478 544.4427,72.4668 "
       id="polygon80"
       transform="matrix(0.26458333,0,0,0.26458333,-48.319361,117.38468)" />
  </g>
</svg>
