<?xml version="1.0" encoding="UTF-8" standalone="no"?>
<svg
   xmlns:dc="http://purl.org/dc/elements/1.1/"
   xmlns:cc="http://creativecommons.org/ns#"
   xmlns:rdf="http://www.w3.org/1999/02/22-rdf-syntax-ns#"
   xmlns:svg="http://www.w3.org/2000/svg"
   xmlns="http://www.w3.org/2000/svg"
   xmlns:sodipodi="http://sodipodi.sourceforge.net/DTD/sodipodi-0.dtd"
   xmlns:inkscape="http://www.inkscape.org/namespaces/inkscape"
   width="42.92902mm"
   height="55.8792mm"
   viewBox="0 0 42.92902 55.8792"
   version="1.1"
   id="svg441"
   inkscape:version="1.0.2 (1.0.2+r75+1)">
  <defs
     id="defs435" />
  <sodipodi:namedview
     id="base"
     pagecolor="#ffffff"
     bordercolor="#666666"
     borderopacity="1.0"
     inkscape:pageopacity="0.0"
     inkscape:pageshadow="2"
     inkscape:zoom="0.35"
     inkscape:cx="-107.44572"
     inkscape:cy="105.59847"
     inkscape:document-units="mm"
     inkscape:current-layer="layer1"
     inkscape:document-rotation="0"
     showgrid="false"
     fit-margin-top="0"
     fit-margin-left="0"
     fit-margin-right="0"
     fit-margin-bottom="0"
     inkscape:window-width="1366"
     inkscape:window-height="711"
     inkscape:window-x="0"
     inkscape:window-y="0"
     inkscape:window-maximized="1" />
  <metadata
     id="metadata438">
    <rdf:RDF>
      <cc:Work
         rdf:about="">
        <dc:format>image/svg+xml</dc:format>
        <dc:type
           rdf:resource="http://purl.org/dc/dcmitype/StillImage" />
        <dc:title></dc:title>
      </cc:Work>
    </rdf:RDF>
  </metadata>
  <g
     inkscape:label="Layer 1"
     inkscape:groupmode="layer"
     id="layer1"
     transform="translate(-134.26168,-120.22707)">
    <path
       fill="#ffffff"
       stroke="#20201e"
       stroke-width="0.924639"
       d="m 175.42001,175.64395 c 0.72348,0 1.30837,-0.58528 1.30837,-1.30878 v -3.07515 c 0,-0.72348 -0.58489,-1.30836 -1.30837,-1.30836 h -39.38765 c -0.72305,0 -1.30836,0.58488 -1.30836,1.30836 v 3.07515 c 0,0.72347 0.58526,1.30878 1.30836,1.30878 z"
       id="path96" />
    <rect
       x="136.83978"
       y="165.10573"
       fill="#ffffff"
       stroke="#20201e"
       stroke-width="0.924639"
       width="37.773609"
       height="4.8469281"
       id="rect98" />
    <polygon
       fill="#ffffff"
       stroke="#20201e"
       stroke-width="3.4947"
       stroke-linejoin="bevel"
       points="-511.6526,63.9094 -526.3322,80.3635 -383.5658,80.3635 -398.2454,63.9094 "
       id="polygon100"
       transform="matrix(0.26458333,0,0,0.26458333,276.09852,143.84289)" />
    <polygon
       fill="#ffffff"
       stroke="#20201e"
       stroke-width="3.4947"
       stroke-linejoin="round"
       points="-511.6526,-33.0436 -530.8688,-51.3664 -379.092,-51.3664 -398.2454,-33.0436 "
       id="polygon102"
       transform="matrix(0.26458333,0,0,0.26458333,276.09852,143.84289)" />
    <rect
       x="140.7238"
       y="135.1001"
       fill="#ffffff"
       stroke="#20201e"
       stroke-width="0.924639"
       width="29.965677"
       height="25.654661"
       id="rect104" />
    <path
       fill="#ffffff"
       stroke="#20201e"
       stroke-width="0.924639"
       stroke-linecap="square"
       d="m 174.56263,120.68955 h -6.98926 v 4.49447 l -3.92221,1.29906 -3.61654,-1.29906 v -4.49447 h -8.61536 v 4.49447 l -3.61654,1.29906 -3.9226,-1.29906 v -4.49447 h -6.98929 c -0.69096,0 -1.25103,0.58528 -1.25103,1.30754 v 8.26918 h 40.1751 v -8.26918 c -7.9e-4,-0.72252 -0.56105,-1.3077 -1.25193,-1.3077 z"
       id="path106" />
  </g>
</svg>
