<?xml version="1.0" encoding="UTF-8" standalone="no"?>
<svg
   xmlns:dc="http://purl.org/dc/elements/1.1/"
   xmlns:cc="http://creativecommons.org/ns#"
   xmlns:rdf="http://www.w3.org/1999/02/22-rdf-syntax-ns#"
   xmlns:svg="http://www.w3.org/2000/svg"
   xmlns="http://www.w3.org/2000/svg"
   xmlns:sodipodi="http://sodipodi.sourceforge.net/DTD/sodipodi-0.dtd"
   xmlns:inkscape="http://www.inkscape.org/namespaces/inkscape"
   width="34.70256mm"
   height="52.331062mm"
   viewBox="0 0 34.70256 52.331062"
   version="1.1"
   id="svg1318"
   inkscape:version="1.0.2-2 (e86c870879, 2021-01-15)"
   sodipodi:docname="Pone.svg">
  <defs
     id="defs1312" />
  <sodipodi:namedview
     id="base"
     pagecolor="#ffffff"
     bordercolor="#666666"
     borderopacity="1.0"
     inkscape:pageopacity="0.0"
     inkscape:pageshadow="2"
     inkscape:zoom="3.959798"
     inkscape:cx="-5.7679952"
     inkscape:cy="91.542887"
     inkscape:document-units="mm"
     inkscape:current-layer="layer1"
     inkscape:document-rotation="0"
     showgrid="false"
     inkscape:window-width="1920"
     inkscape:window-height="1017"
     inkscape:window-x="-8"
     inkscape:window-y="-8"
     inkscape:window-maximized="1"
     fit-margin-top="0"
     fit-margin-left="0"
     fit-margin-right="0"
     fit-margin-bottom="0" />
  <metadata
     id="metadata1315">
    <rdf:RDF>
      <cc:Work
         rdf:about="">
        <dc:format>image/svg+xml</dc:format>
        <dc:type
           rdf:resource="http://purl.org/dc/dcmitype/StillImage" />
        <dc:title></dc:title>
      </cc:Work>
    </rdf:RDF>
  </metadata>
  <g
     inkscape:label="Layer 1"
     inkscape:groupmode="layer"
     id="layer1"
     transform="translate(-71.09515,-130.31661)">
    <path
       stroke="#000000"
       stroke-width="0.657304"
       stroke-linejoin="round"
       d="m 95.581877,175.28692 c -3.13981,-6.18738 -2.24285,-9.43076 -1.99454,-13.7084 4.93568,-0.35316 8.167453,-2.81319 8.164193,-3.91505 -0.003,-1.08153 -3.793213,-3.85223 -8.587853,-4.19166 3.05666,-1.58686 4.50491,-6.93621 4.49403,-10.61707 -0.0155,-5.24805 -4.30327,-9.80854 -9.5512,-9.79301 -5.24794,0.0156 -9.98438,5.02555 -9.96885,10.27349 0.0109,3.68078 2.12072,8.58196 5.18586,10.15083 -4.79176,0.36778 -8.801264,3.74186 -8.798065,4.82341 0.0033,1.10185 3.972145,2.65186 8.908765,2.97582 0.2744,4.27668 2.0256,7.83515 -1.07753,14.04077 -6.11419,1.24795 -9.07571,4.1481 -9.065762,7.51098 l 30.926805,-0.006 c -0.0101,-3.36288 -2.50997,-6.33311 -8.631703,-7.54699 z"
       id="path210"
       sodipodi:nodetypes="ccccscccccccccc"
       style="fill:#333333" />
    <path
       style="fill:#b3b3b3;stroke-width:0.264583"
       id="path211"
       d="m 86.925746,139.48606 c -0.0924,0.3739 -0.224915,0.73605 -0.316797,1.11078 -0.155354,0.6245 -0.323821,1.24429 -0.545944,1.84851 -0.250732,0.59905 -0.469466,1.21223 -0.761747,1.79286 -0.222241,0.42263 -0.48366,0.82305 -0.708328,1.24412 -0.111966,0.23341 -0.227463,0.48974 -0.215972,0.7557 0.0022,0.0505 0.01347,0.10029 0.02021,0.15044 0.05069,0.26089 0.196187,0.47431 0.448484,0.57525 0.05873,0.0235 0.121073,0.0367 0.18161,0.055 0.44482,0.10368 0.904228,0.0677 1.3563,0.0523 0.313044,-0.006 0.626628,-0.0216 0.932891,-0.0914 0.194309,-0.0443 0.343459,-0.0947 0.533544,-0.15386 0.685165,-0.23814 1.327994,-0.59275 1.920334,-1.01093 0,0 -0.916358,0.36072 -0.916358,0.36072 v 0 c -0.326449,0.22441 -0.134636,0.0881 0.605106,-0.32914 0.05507,-0.0311 -0.109128,0.064 -0.16502,0.0936 -0.219258,0.116 -0.448402,0.2122 -0.681926,0.29544 -0.174478,0.0566 -0.3467,0.11562 -0.52476,0.16042 -0.301968,0.076 -0.612576,0.0965 -0.92288,0.10381 -0.443345,0.0147 -0.892859,0.0525 -1.331356,-0.0335 -0.343552,-0.0872 -0.490577,-0.16792 -0.565572,-0.53345 -0.0039,-0.0448 -0.01196,-0.0894 -0.01166,-0.13437 0.0017,-0.2529 0.118322,-0.49213 0.22463,-0.71446 0.226615,-0.4191 0.485604,-0.82 0.701356,-1.24518 0.276111,-0.58613 0.496847,-1.19593 0.742765,-1.79497 0.222114,-0.61052 0.395121,-1.23556 0.557496,-1.86442 0.101417,-0.37555 0.229991,-0.74224 0.341329,-1.11485 0,0 -0.897735,0.42161 -0.897735,0.42161 z" />
    <path
       style="fill:#b3b3b3;stroke-width:0.264583"
       id="path213"
       d="m 87.52538,143.65232 c 0.248244,0.08 0.470523,0.20729 0.660721,0.38452 0.07263,0.0784 0.136708,0.1632 0.198989,0.24978 0,0 0.854286,-0.50484 0.854286,-0.50484 v 0 c -0.06645,-0.0918 -0.136403,-0.18002 -0.213297,-0.26349 -0.195085,-0.1835 -0.421496,-0.32473 -0.674969,-0.41467 0,0 -0.82573,0.5487 -0.82573,0.5487 z" />
    <path
       style="fill:#b3b3b3;stroke-width:0.264583"
       id="path215"
       d="m 84.612907,143.52482 c -0.176295,0.18601 -0.278269,0.41664 -0.34729,0.65982 0,0 0.892166,-0.42205 0.892166,-0.42205 v 0 c 0.07534,-0.23358 0.189055,-0.44781 0.371015,-0.61715 0,0 -0.915891,0.37938 -0.915891,0.37938 z" />
    <path
       style="fill:#b3b3b3;stroke-width:0.264583"
       id="path217"
       d="m 89.093777,138.94291 c 0.368452,-0.15321 0.768396,-0.18953 1.161941,-0.22283 0.382303,-0.033 0.764581,-0.0346 1.145889,0.007 0.419538,0.0484 0.833457,0.12414 1.243468,0.22424 0.278236,0.0732 0.54679,0.17678 0.811033,0.28955 0.143278,0.0616 0.284258,0.12763 0.429244,0.18522 0,0 0.818059,-0.54967 0.818059,-0.54967 v 0 c -0.145734,-0.0541 -0.284318,-0.12274 -0.428265,-0.18122 -0.269234,-0.11667 -0.54274,-0.22372 -0.826814,-0.29902 -0.413863,-0.0979 -0.829318,-0.18206 -1.25229,-0.23113 -0.385344,-0.0556 -0.771599,-0.0572 -1.159508,-0.0219 -0.391778,0.0303 -0.790662,0.0561 -1.164236,0.18762 0,0 -0.778521,0.6122 -0.778521,0.6122 z" />
    <path
       style="fill:#b3b3b3;stroke-width:0.264583"
       id="path219"
       d="m 86.926262,138.64441 c -0.283627,0.004 -0.567309,0.004 -0.850959,0.003 -0.342082,0.002 -0.683229,0.003 -1.024617,-0.0202 -0.466426,-0.0459 -0.933728,-0.0788 -1.402012,-0.0972 -0.41035,-0.013 -0.820918,-0.0139 -1.231428,-0.0152 -0.32513,-0.004 -0.630292,0.0359 -0.940776,0.12957 -0.04805,0.0154 -0.09609,0.0309 -0.144139,0.0463 0,0 -0.7754,0.60149 -0.7754,0.60149 v 0 c 0.04814,-0.0159 0.09628,-0.0317 0.144423,-0.0476 0.09377,-0.031 0.196983,-0.0671 0.293158,-0.091 0.206945,-0.0513 0.421754,-0.0488 0.633156,-0.0653 0.410839,-5e-4 0.821757,-3.2e-4 1.232487,0.0103 0.467906,0.015 0.935304,0.0421 1.400896,0.0924 0.339394,0.0323 0.678638,0.0411 1.019529,0.0338 0.280949,-7.9e-4 0.561933,-0.001 0.842858,0.003 0,0 0.802824,-0.58328 0.802824,-0.58328 z" />
    <path
       style="fill:#b3b3b3;stroke-width:0.264583"
       id="path221"
       d="m 84.138949,150.04073 c 0.270717,-0.1024 0.533732,-0.22413 0.800799,-0.33565 0.395541,-0.16306 0.790295,-0.32817 1.188762,-0.484 0.388743,-0.14652 0.79912,-0.22302 1.205446,-0.30306 0.290092,-0.0586 0.582146,-0.10587 0.877376,-0.12731 0.292062,-0.0155 0.584681,-0.0133 0.877044,-0.0128 0.312476,-0.0184 0.607984,0.0575 0.900313,0.1584 0.295591,0.12014 0.602905,0.20733 0.902416,0.3163 0.361613,0.12502 0.734023,0.21429 1.099325,0.32905 0.260552,0.0795 0.51251,0.18208 0.762978,0.28821 0,0 0.805253,-0.53751 0.805253,-0.53751 v 0 c -0.253983,-0.10561 -0.509435,-0.20742 -0.771136,-0.29278 -0.358567,-0.1179 -0.719961,-0.22431 -1.079945,-0.33613 -0.298625,-0.11753 -0.614654,-0.18631 -0.910582,-0.31238 -0.294274,-0.11252 -0.594314,-0.20894 -0.914098,-0.19028 -0.292705,-1.8e-4 -0.585504,-0.002 -0.878124,0.006 -0.301858,0.0155 -0.599614,0.0622 -0.895392,0.12456 -0.40817,0.0803 -0.821651,0.15061 -1.215094,0.28891 -0.398446,0.15347 -0.791971,0.31913 -1.187005,0.48102 -0.264852,0.10283 -0.522469,0.2229 -0.785116,0.33105 0,0 -0.78322,0.60848 -0.78322,0.60848 z" />
    <path
       style="fill:#b3b3b3;stroke-width:0.264583"
       id="path223"
       d="m 87.745724,150.1186 c 0.21329,-0.0138 0.423317,-0.0535 0.632627,-0.0946 0,0 0.781783,-0.59241 0.781783,-0.59241 v 0 c -0.202907,0.0429 -0.405643,0.0848 -0.612478,0.10441 0,0 -0.801932,0.58263 -0.801932,0.58263 z" />
    <path
       style="fill:#b3b3b3;stroke-width:0.264583"
       id="path225"
       d="m 90.049666,139.81265 c 0.447011,-0.10004 0.903961,-0.14087 1.36113,-0.14782 0.250067,-0.005 0.499283,0.0157 0.741846,0.0767 0,0 0.812205,-0.55772 0.812205,-0.55772 v 0 c -0.249542,-0.0729 -0.508082,-0.0978 -0.768037,-0.0916 -0.456678,0.005 -0.911264,0.0432 -1.361559,0.12198 0,0 -0.785585,0.59844 -0.785585,0.59844 z" />
    <path
       style="fill:#b3b3b3;stroke-width:0.264583"
       id="path227"
       d="m 81.664199,140.24692 c 0.277346,0.10304 0.555479,0.20137 0.844749,0.26483 0.233066,0.0451 0.471111,0.0485 0.707642,0.0525 0.17099,0.0104 0.339025,-0.0251 0.508002,-0.0443 0.188814,-0.0197 0.378815,-0.0214 0.568447,-0.0237 0.03665,0.003 0.07329,0.006 0.109938,0.01 0,0 0.805871,-0.56891 0.805871,-0.56891 v 0 c -0.03912,-0.007 -0.07825,-0.0144 -0.117372,-0.0216 -0.190476,5.3e-4 -0.381301,2e-4 -0.571351,0.0144 -0.168825,0.0151 -0.334997,0.0526 -0.504188,0.0551 -0.233215,-6.3e-4 -0.467569,-0.001 -0.698746,-0.036 -0.286803,-0.0524 -0.565165,-0.13869 -0.832788,-0.25505 0,0 -0.820204,0.55327 -0.820204,0.55327 z" />
  </g>
</svg>
