<?xml version="1.0" encoding="UTF-8" standalone="no"?>
<svg
   xmlns:dc="http://purl.org/dc/elements/1.1/"
   xmlns:cc="http://creativecommons.org/ns#"
   xmlns:rdf="http://www.w3.org/1999/02/22-rdf-syntax-ns#"
   xmlns:svg="http://www.w3.org/2000/svg"
   xmlns="http://www.w3.org/2000/svg"
   xmlns:sodipodi="http://sodipodi.sourceforge.net/DTD/sodipodi-0.dtd"
   xmlns:inkscape="http://www.inkscape.org/namespaces/inkscape"
   width="34.70256mm"
   height="52.331062mm"
   viewBox="0 0 34.70256 52.331062"
   version="1.1"
   id="svg1318"
   inkscape:version="1.0.2 (1.0.2+r75+1)"
   sodipodi:docname="pone-black.svg">
  <defs
     id="defs1312" />
  <sodipodi:namedview
     id="base"
     pagecolor="#ffffff"
     bordercolor="#666666"
     borderopacity="1.0"
     inkscape:pageopacity="0.0"
     inkscape:pageshadow="2"
     inkscape:zoom="0.35"
     inkscape:cx="131.29392"
     inkscape:cy="67.464789"
     inkscape:document-units="mm"
     inkscape:current-layer="layer1"
     inkscape:document-rotation="0"
     showgrid="false"
     inkscape:window-width="1366"
     inkscape:window-height="711"
     inkscape:window-x="0"
     inkscape:window-y="0"
     inkscape:window-maximized="1"
     fit-margin-top="0"
     fit-margin-left="0"
     fit-margin-right="0"
     fit-margin-bottom="0" />
  <metadata
     id="metadata1315">
    <rdf:RDF>
      <cc:Work
         rdf:about="">
        <dc:format>image/svg+xml</dc:format>
        <dc:type
           rdf:resource="http://purl.org/dc/dcmitype/StillImage" />
        <dc:title></dc:title>
      </cc:Work>
    </rdf:RDF>
  </metadata>
  <g
     inkscape:label="Layer 1"
     inkscape:groupmode="layer"
     id="layer1"
     transform="translate(-71.09515,-130.31661)">
    <path
       stroke="#000000"
       stroke-width="0.657304"
       stroke-linejoin="round"
       d="m 95.059904,174.8388 c -3.121501,-6.19665 -2.806092,-17.2349 -2.545133,-21.51179 4.936702,-0.33856 8.487169,-1.27341 8.487169,-2.37527 0,-1.08154 -3.417435,-2.00292 -8.21105,-2.35654 3.061335,-1.57781 5.156174,-4.76718 5.156174,-8.44806 0,-5.24807 -4.252251,-9.50188 -9.500209,-9.50188 -5.247957,0 -9.500208,4.25392 -9.500208,9.50188 0,3.6808 2.095659,6.87014 5.156147,8.44806 -4.792821,0.35362 -8.21182,1.27498 -8.21182,2.35654 0,1.10186 3.552375,2.03671 8.488018,2.37527 0.261753,4.27747 0.577136,15.31538 -2.544339,21.51179 -6.117854,1.22986 -10.410851,4.11732 -10.410851,7.48022 h 34.045258 c 0,-3.3629 -4.28688,-6.25133 -10.405002,-7.48331 z"
       id="path210" />
  </g>
</svg>
