<?xml version="1.0" encoding="UTF-8" standalone="no"?>
<svg
   xmlns:dc="http://purl.org/dc/elements/1.1/"
   xmlns:cc="http://creativecommons.org/ns#"
   xmlns:rdf="http://www.w3.org/1999/02/22-rdf-syntax-ns#"
   xmlns:svg="http://www.w3.org/2000/svg"
   xmlns="http://www.w3.org/2000/svg"
   xmlns:sodipodi="http://sodipodi.sourceforge.net/DTD/sodipodi-0.dtd"
   xmlns:inkscape="http://www.inkscape.org/namespaces/inkscape"
   width="58.978867mm"
   height="52.80611mm"
   viewBox="0 0 58.978867 52.80611"
   version="1.1"
   id="svg1205"
   inkscape:version="1.0.2 (1.0.2+r75+1)"
   sodipodi:docname="queen-black.svg">
  <defs
     id="defs1199" />
  <sodipodi:namedview
     id="base"
     pagecolor="#ffffff"
     bordercolor="#666666"
     borderopacity="1.0"
     inkscape:pageopacity="0.0"
     inkscape:pageshadow="2"
     inkscape:zoom="0.35"
     inkscape:cx="197.81032"
     inkscape:cy="115.63724"
     inkscape:document-units="mm"
     inkscape:current-layer="layer1"
     inkscape:document-rotation="0"
     showgrid="false"
     fit-margin-top="0"
     fit-margin-left="0"
     fit-margin-right="0"
     fit-margin-bottom="0"
     inkscape:window-width="1366"
     inkscape:window-height="711"
     inkscape:window-x="0"
     inkscape:window-y="0"
     inkscape:window-maximized="1" />
  <metadata
     id="metadata1202">
    <rdf:RDF>
      <cc:Work
         rdf:about="">
        <dc:format>image/svg+xml</dc:format>
        <dc:type
           rdf:resource="http://purl.org/dc/dcmitype/StillImage" />
        <dc:title></dc:title>
      </cc:Work>
    </rdf:RDF>
  </metadata>
  <g
     inkscape:label="Layer 1"
     inkscape:groupmode="layer"
     id="layer1"
     transform="translate(-53.496019,-117.57098)">
    <path
       stroke="#000000"
       stroke-width="0.710142"
       stroke-linejoin="bevel"
       d="m 111.77432,131.58242 c 0.70802,-1.21531 0.29914,-2.77439 -0.91615,-3.48284 -1.2128,-0.70885 -2.77199,-0.29914 -3.48078,0.91572 -0.60803,1.04135 -0.39182,2.33339 0.44628,3.12801 -3.46779,4.20428 -9.795722,11.87339 -11.324862,13.73299 -0.44873,-0.19997 -0.91371,-0.39061 -1.39652,-0.56901 0.13655,-1.42542 1.13887,-12.31207 1.67129,-18.10145 1.15512,0.0264 2.22001,-0.7385 2.52243,-1.90545 0.35198,-1.36157 -0.46577,-2.75042 -1.82655,-3.10319 -1.36239,-0.35197 -2.75084,0.4658 -3.10359,1.82695 -0.30159,1.1661 0.25768,2.3517 1.28114,2.89028 -2.50777,5.69024 -7.37375,16.73712 -7.38589,16.78292 -0.002,0.011 -8e-4,0.0224 -0.003,0.0333 -0.44222,-0.0532 -0.89667,-0.0992 -1.35834,-0.13737 -0.0927,-0.61212 -2.1794,-13.4175 -3.26784,-20.08672 1.25028,-0.29223 2.18265,-1.41118 2.18265,-2.75085 0,-1.56276 -1.26651,-2.82966 -2.82969,-2.82966 -1.5616,0 -2.82885,1.26693 -2.82885,2.82966 0,1.33967 0.93321,2.45859 2.1834,2.75085 -1.08281,6.63893 -3.15648,19.35753 -3.26536,20.0759 -0.48448,0.0382 -0.95676,0.0854 -1.41933,0.13858 -0.003,-0.0159 -0.002,-0.0293 -0.007,-0.0443 -0.0114,-0.0455 -4.87823,-11.09342 -7.38431,-16.78373 1.02259,-0.53692 1.58189,-1.72292 1.28032,-2.88986 -0.3528,-1.36081 -1.74207,-2.17855 -3.10362,-1.82613 -1.35996,0.3524 -2.17855,1.74165 -1.82578,3.10237 0.30239,1.16729 1.36646,1.93186 2.52161,1.90506 0.53163,5.78336 1.53069,16.64723 1.67129,18.09644 -0.47474,0.17192 -0.92995,0.35726 -1.37213,0.55155 -1.58922,-1.93183 -7.84688,-9.51685 -11.28987,-13.68804 0.83971,-0.79459 1.05674,-2.08666 0.44873,-3.12801 -0.70802,-1.21488 -2.26798,-1.62459 -3.48245,-0.91572 -1.21364,0.70845 -1.62335,2.26756 -0.91447,3.48284 0.60721,1.04008 1.83962,1.48799 2.9443,1.14782 2.07045,5.39231 8.75356,22.74789 9.00909,22.98681 h 0.002 c 0.005,0.0301 0.6617,4.33515 0.73406,5.76258 0.0723,1.42007 -0.54546,4.89444 -0.50075,4.91476 v 0.003 c 8e-4,0 0.002,-0.002 0.002,-0.002 4.9562,2.32082 10.60063,3.62554 16.65388,3.62554 6.10967,0 17.138332,-3.73608 17.086732,-3.76045 -0.721042,-1.52172 -0.448702,-10.54571 -0.448702,-10.54571 0.25524,-0.24143 7.025822,-17.45133 9.150612,-22.98514 1.09043,0.34128 2.32241,-0.10822 2.93005,-1.14872"
       id="path52" />
    <g
       id="g58"
       transform="matrix(0.26458333,0,0,0.26458333,-51.771042,68.141717)">
      <path
         stroke="#ffffff"
         stroke-width="2.9123"
         stroke-linecap="round"
         d="m 451.2241,367.4442 c 19.6967,-8.1172 38.1338,-11.6012 60.7258,-11.6012 21.6971,0 39.065,3.5916 57.2242,11.1158"
         id="path54" />
      <path
         stroke="#ffffff"
         stroke-width="2.9123"
         stroke-linecap="round"
         d="m 565.4272,329.408 c -16.0224,-6.1569 -35.6515,-9.7793 -56.8561,-9.7793 -21.396,0 -41.1823,3.6869 -57.2809,9.9423"
         id="path56" />
    </g>
    <path
       fill="none"
       stroke="#ffffff"
       stroke-width="0.770546"
       stroke-linecap="round"
       d="m 98.339328,162.38966 c -4.69199,-1.55019 -9.46859,-2.67526 -14.84672,-2.67526 -5.47973,0 -10.76047,1.15753 -15.71162,2.76384"
       id="path60" />
    <polygon
       fill="#ffffff"
       points="509.3953,329.8484 500.4604,334.3159 509.3953,338.7834 518.3616,334.3159 "
       id="polygon62"
       transform="matrix(0.26458333,0,0,0.26458333,-51.771042,68.141717)" />
    <polygon
       fill="#ffffff"
       points="546.8023,334.2844 554.9191,340.1362 545.3865,343.1249 537.2697,337.2732 "
       id="polygon64"
       transform="matrix(0.26458333,0,0,0.26458333,-51.771042,68.141717)" />
    <polygon
       fill="#ffffff"
       points="472.0197,334.2844 463.9028,340.1362 473.4355,343.1249 481.5524,337.2732 "
       id="polygon66"
       transform="matrix(0.26458333,0,0,0.26458333,-51.771042,68.141717)" />
  </g>
</svg>
